<?xml version="1.0" standalone="no"?>
<!DOCTYPE svg PUBLIC "-//W3C//DTD SVG 20010904//EN"
 "http://www.w3.org/TR/2001/REC-SVG-20010904/DTD/svg10.dtd">
<svg version="1.0" xmlns="http://www.w3.org/2000/svg"
 width="700.000000pt" height="700.000000pt" viewBox="0 0 700.000000 700.000000"
 preserveAspectRatio="xMidYMid meet">
<metadata>
Created by potrace 1.14, written by Peter Selinger 2001-2017
</metadata>
<g transform="translate(0.000000,700.000000) scale(0.100000,-0.100000)"
fill="#000000" stroke="none">
<path d="M3470 5519 c-210 -31 -328 -67 -505 -155 -347 -172 -612 -453 -748
-794 -82 -208 -111 -380 -103 -620 3 -91 8 -185 11 -210 l6 -45 -143 -191
c-260 -348 -258 -345 -258 -400 0 -54 29 -114 67 -140 15 -10 100 -45 188 -79
l159 -60 2 -235 c2 -208 5 -241 22 -288 58 -151 153 -244 299 -293 55 -18 90
-21 236 -23 l171 -1 2 -110 c3 -175 52 -278 168 -352 91 -58 65 -56 771 -58
358 -1 668 2 690 7 99 21 182 76 234 155 32 47 59 125 62 173 2 25 -9 187 -16
245 -2 17 -7 66 -10 110 -4 44 -8 96 -11 115 -9 89 -5 217 11 315 14 92 80
264 141 370 103 179 211 423 278 631 132 406 89 830 -121 1176 -89 148 -185
258 -350 400 -28 24 -154 111 -208 145 -145 89 -384 178 -544 203 -36 6 -79
13 -96 16 -73 14 -295 10 -405 -7z m352 -334 c42 -3 83 -7 90 -10 7 -2 24 -7
38 -9 221 -41 444 -159 627 -330 190 -178 305 -388 343 -629 17 -104 7 -307
-20 -417 -41 -168 -166 -467 -281 -671 -62 -110 -113 -230 -144 -338 -46 -163
-55 -238 -50 -441 2 -96 6 -184 8 -196 8 -33 20 -194 21 -269 l1 -70 -607 -1
c-334 0 -613 3 -620 7 -10 6 -13 54 -14 196 -1 199 -5 219 -54 271 -39 41 -65
45 -327 47 -269 2 -293 6 -327 52 -18 25 -20 47 -21 282 l-2 256 -28 58 c-34
71 -107 139 -178 166 -29 10 -64 24 -79 30 l-28 10 129 175 c71 96 137 196
147 223 20 51 25 174 11 268 -10 60 -10 254 -2 310 9 60 44 206 57 240 44 116
63 153 137 265 177 270 512 473 856 519 133 18 151 19 317 6z"/>
<path d="M3242 4415 c-40 -17 -363 -337 -386 -382 -23 -45 -20 -111 5 -153 33
-55 344 -359 383 -375 48 -20 89 -19 134 4 68 35 104 98 97 170 -5 53 -14 65
-131 184 l-97 97 97 97 c108 107 134 149 131 208 -6 119 -126 196 -233 150z"/>
<path d="M3855 4410 c-81 -40 -118 -145 -79 -223 9 -18 60 -76 114 -130 l97
-98 -97 -97 c-54 -53 -105 -111 -114 -129 -49 -97 21 -225 132 -240 73 -10 99
7 281 190 210 209 225 234 199 325 -11 35 -45 74 -188 218 -99 99 -190 182
-209 190 -46 19 -89 18 -136 -6z"/>
</g>
</svg>
